#!OML:ASF F:\VICON\USERDATA\INSTALL\rory3\rory3.ASF
:FULLY-SPECIFIED
:DEGREES
1889
root 1.46467 15.5965 -2.73229 12.7179 -20.2865 5.28164
lowerback 46.1446 1.9875 -0.230393
upperback 18.5917 1.68017 0.584618
thorax -0.293435 0.582123 0.124407
lowerneck 3.69513 -11.7799 -12.3028
upperneck 34.6484 -19.854 15.2556
head 14.2993 -8.8232 5.99559
rclavicle -6.20208e-014 -2.50469e-014
rhumerus 0.0248835 -7.38941 -68.6737
rradius 92.857
rwrist 6.89715
rhand 12.7416 7.48615
rfingers 7.12502
rthumb 37.7218 -18.3882
lclavicle -6.20208e-014 -2.50469e-014
lhumerus 11.4117 -29.305 78.6467
lradius 99.8374
lwrist 4.21952
lhand -0.00577134 22.4877
lfingers 7.12502
lthumb 25.5848 50.7893
rfemur -45.1122 16.0174 -0.355494
rtibia 35.5863
rfoot -5.03525 -4.97195
rtoes -14.0401
lfemur -37.2599 7.27303 -27.8599
ltibia 35.7683
lfoot -11.1378 12.7803
ltoes -5.64999
1890
root 1.46494 15.5885 -2.73672 13.0484 -20.4589 5.58804
lowerback 46.088 1.77735 -0.084884
upperback 18.5146 1.47633 0.253831
thorax -0.354587 0.521894 -0.225565
lowerneck 3.97064 -11.6049 -12.3975
upperneck 34.9455 -19.6955 15.4009
head 14.3886 -8.7652 6.13737
rclavicle -3.02153e-014 -7.95139e-016
rhumerus -0.319455 -7.44414 -68.9962
rradius 92.9418
rwrist 7.12164
rhand 12.7167 7.57661
rfingers 7.12502
rthumb 37.6983 -18.3041
lclavicle -3.02153e-014 -7.95139e-016
lhumerus 10.9852 -29.559 78.6885
lradius 100.098
lwrist 4.3337
lhand 0.358949 22.5921
lfingers 7.12502
lthumb 25.9341 50.843
rfemur -45.8157 15.7792 -0.78354
rtibia 35.8922
rfoot -5.04533 -4.78708
rtoes -14.4286
lfemur -37.8233 7.34493 -28.289
ltibia 35.8846
lfoot -11.1843 12.7846
ltoes -5.90729
1891
root 1.46496 15.581 -2.7401 13.417 -20.5984 5.62671
lowerback 46.2879 1.83258 0.249814
upperback 18.3568 1.66889 0.214208
thorax -0.569211 0.640826 -0.509668
lowerneck 4.43938 -11.7168 -12.077
upperneck 35.0582 -19.8851 15.431
head 14.3506 -8.81965 6.10644
rclavicle 1.11319e-014 -1.37161e-014
rhumerus -0.975138 -8.01883 -68.8852
rradius 93.0962
rwrist 7.29725
rhand 12.7035 7.70462
rfingers 7.12502
rthumb 37.6858 -18.1794
lclavicle 1.11319e-014 -1.37161e-014
lhumerus 10.8296 -30.4818 78.891
lradius 100.25
lwrist 4.51145
lhand 0.663763 22.7425
lfingers 7.12502
lthumb 26.226 50.9504
rfemur -46.4319 15.653 -0.938769
rtibia 36.1791
rfoot -5.09023 -4.67562
rtoes -14.3967
lfemur -38.3478 7.42569 -28.4215
ltibia 36.003
lfoot -11.159 12.8166
ltoes -5.95655
1892
root 1.46507 15.5731 -2.74364 13.7879 -20.679 5.63416
lowerback 46.4743 1.83173 0.666699
upperback 18.2049 1.83137 0.167445
thorax -0.769167 0.749913 -0.831994
lowerneck 4.89095 -11.8529 -11.8141
upperneck 35.1849 -20.107 15.478
head 14.3416 -8.89217 6.08774
rclavicle 1.59028e-015 -1.98785e-014
rhumerus -1.71853 -8.57459 -68.742
rradius 93.3628
rwrist 7.50253
rhand 12.6675 7.66054
rfingers 7.12502
rthumb 37.6517 -18.2326
lclavicle 1.59028e-015 -1.98785e-014
lhumerus 10.6874 -31.4211 79.0466
lradius 100.345
lwrist 4.62393
lhand 0.616899 22.7464
lfingers 7.12502
lthumb 26.1811 50.9609
rfemur -47.0007 15.5236 -1.06362
rtibia 36.4094
rfoot -5.12505 -4.60203
rtoes -14.2033
lfemur -38.8864 7.50009 -28.5201
ltibia 36.1726
lfoot -11.1266 12.7466
ltoes -5.87832
1893
root 1.46315 15.5681 -2.74751 14.1195 -20.7824 5.65092
lowerback 46.6695 1.83792 1.03221
upperback 18.0631 1.98091 0.100759
thorax -0.957837 0.849274 -1.14541
lowerneck 5.35951 -11.946 -11.5917
upperneck 35.331 -20.2803 15.5662
head 14.3406 -8.94754 6.10471
rclavicle 1.90833e-014 8.94531e-015
rhumerus -2.4532 -9.12338 -68.6764
rradius 93.6513
rwrist 7.73491
rhand 12.6217 7.55318
rfingers 7.12502
rthumb 37.6085 -18.3515
lclavicle 1.90833e-014 8.94531e-015
lhumerus 10.4029 -32.1925 79.2893
lradius 100.552
lwrist 4.75249
lhand 0.805434 22.8478
lfingers 7.12502
lthumb 26.3616 51.0354
rfemur -47.5486 15.4537 -1.18736
rtibia 36.5907
rfoot -5.11274 -4.52671
rtoes -16.1731
lfemur -39.3897 7.61742 -28.6209
ltibia 36.3787
lfoot -11.1959 12.6488
ltoes -5.72234
1894
root 1.45995 15.5622 -2.75225 14.4185 -20.936 5.65574
lowerback 46.9161 1.86366 1.41493
upperback 17.9128 2.15724 -0.00427134
thorax -1.16238 0.963346 -1.5194
lowerneck 5.8658 -12.0717 -11.3059
upperneck 35.4183 -20.4833 15.6458
head 14.3 -9.01209 6.10274
rclavicle -2.22639e-014 4.85035e-014
rhumerus -3.18854 -9.69585 -68.653
rradius 93.9028
rwrist 8.0269
rhand 12.5549 7.51331
rfingers 7.12502
rthumb 37.5454 -18.4082
lclavicle -2.22639e-014 4.85035e-014
lhumerus 10.2018 -33.1275 79.4252
lradius 100.648
lwrist 4.94141
lhand 0.842766 22.9119
lfingers 7.12502
lthumb 26.3973 51.0941
rfemur -48.0858 15.3616 -1.2466
rtibia 36.7487
rfoot -5.08105 -4.41505
rtoes -18.0571
lfemur -39.8668 7.79851 -28.7222
ltibia 36.582
lfoot -11.1603 12.5511
ltoes -5.46902
1895
root 1.45755 15.5537 -2.75469 14.754 -21.0712 5.64646
lowerback 47.1322 1.85291 1.85232
upperback 17.738 2.31562 -0.130996
thorax -1.38215 1.07206 -1.93794
lowerneck 6.35069 -12.2459 -10.866
upperneck 35.4112 -20.6777 15.536
head 14.1624 -9.06707 5.98875
rclavicle 1.43125e-014 -1.03368e-014
rhumerus -3.85314 -10.2724 -68.58
rradius 93.9397
rwrist 8.41105
rhand 12.3281 7.69658
rfingers 7.12502
rthumb 37.331 -18.2816
lclavicle 1.43125e-014 -1.03368e-014
lhumerus 9.94373 -34.0422 79.5914
lradius 100.87
lwrist 4.98511
lhand 0.914111 22.9354
lfingers 7.12502
lthumb 26.4656 51.1074
rfemur -48.6199 15.2743 -1.32631
rtibia 36.8986
rfoot -5.03766 -4.32463
rtoes -19.3367
lfemur -40.3739 7.93247 -28.8039
ltibia 36.7754
lfoot -11.1638 12.4433
ltoes -5.1627
1896
root 1.45571 15.547 -2.75682 15.0546 -21.209 5.66741
lowerback 47.1371 1.79353 1.8852
upperback 17.6998 2.25362 -0.196906
thorax -1.4252 1.04738 -2.00196
lowerneck 6.43014 -12.1976 -10.868
upperneck 35.6081 -20.5607 15.3042
head 14.181 -9.0266 5.9243
rclavicle -6.04305e-014 -9.93923e-016
rhumerus -4.02365 -10.1711 -68.6152
rradius 93.852
rwrist 8.83095
rhand 11.9791 7.9646
rfingers 7.12502
rthumb 37.0009 -18.0996
lclavicle -6.04305e-014 -9.93923e-016
lhumerus 9.42342 -34.0973 79.9349
lradius 101.427
lwrist 4.84826
lhand 1.47877 23.543
lfingers 7.12502
lthumb 27.006 51.6324
rfemur -49.1171 15.2796 -1.49708
rtibia 37.0598
rfoot -5.06784 -4.30937
rtoes -19.8545
lfemur -40.8481 8.0656 -28.9192
ltibia 36.9776
lfoot -11.2073 12.379
ltoes -5.46719
1897
root 1.45438 15.5409 -2.75974 15.3187 -21.2963 5.70858
lowerback 47.1135 1.7538 1.88491
upperback 17.7109 2.20398 -0.210786
thorax -1.40894 1.02444 -1.99744
lowerneck 6.5324 -12.1393 -11.0191
upperneck 35.7415 -20.4822 15.2881
head 14.2278 -9.01055 5.96943
rclavicle 3.02153e-014 -8.15017e-015
rhumerus -4.14522 -10.1006 -68.669
rradius 93.829
rwrist 9.20956
rhand 11.7349 8.03415
rfingers 7.12502
rthumb 36.7699 -18.0895
lclavicle 3.02153e-014 -8.15017e-015
lhumerus 9.10048 -34.2545 80.1363
lradius 101.735
lwrist 4.68569
lhand 1.85149 24.0507
lfingers 7.12502
lthumb 27.3626 52.0844
rfemur -49.5682 15.2481 -1.65941
rtibia 37.2321
rfoot -5.10005 -4.30811
rtoes -19.7996
lfemur -41.3064 8.13697 -29.0309
ltibia 37.2233
lfoot -11.3431 12.3367
ltoes -5.65889
1898
root 1.45162 15.5294 -2.76471 15.6143 -21.3649 5.75969
lowerback 47.1159 1.78387 1.81181
upperback 17.6795 2.21326 -0.158324
thorax -1.44903 1.01988 -1.90914
lowerneck 6.71098 -12.1068 -11.0863
upperneck 35.7428 -20.4242 15.2792
head 14.1871 -8.99991 5.999
rclavicle -1.59028e-015 1.13307e-014
rhumerus -4.2858 -10.0505 -68.5739
rradius 93.7905
rwrist 9.33413
rhand 11.6702 7.957
rfingers 7.12502
rthumb 36.7087 -18.1822
lclavicle -1.59028e-015 1.13307e-014
lhumerus 8.93451 -34.5062 80.2502
lradius 101.725
lwrist 4.65341
lhand 1.91834 24.1094
lfingers 7.12502
lthumb 27.4265 52.133
rfemur -50.064 15.1878 -1.84766
rtibia 37.4184
rfoot -5.18369 -4.27173
rtoes -19.4047
lfemur -41.8415 8.24046 -29.1706
ltibia 37.4824
lfoot -11.348 12.2354
ltoes -5.81772
1899
root 1.44686 15.5143 -2.77326 15.9341 -21.4279 5.65164
lowerback 47.2257 1.92745 1.70487
upperback 17.589 2.35207 0.0519729
thorax -1.58223 1.06033 -1.68719
lowerneck 7.11698 -12.0964 -11.1141
upperneck 35.4924 -20.3508 15.2409
head 13.9618 -8.99641 6.01412
rclavicle -3.02153e-014 -1.45113e-014
rhumerus -4.49427 -10.0029 -68.335
rradius 93.758
rwrist 9.47745
rhand 11.5629 7.91355
rfingers 7.12502
rthumb 36.6072 -18.2515
lclavicle -3.02153e-014 -1.45113e-014
lhumerus 8.67552 -34.8079 80.541
lradius 101.706
lwrist 4.61984
lhand 1.99021 24.1025
lfingers 7.12502
lthumb 27.4952 52.1152
rfemur -50.5664 15.2333 -1.88037
rtibia 37.6205
rfoot -5.21602 -4.35168
rtoes -19.1384
lfemur -42.3813 8.39903 -29.1402
ltibia 37.7596
lfoot -11.2721 12.1274
ltoes -5.63121
1900
root 1.44461 15.5058 -2.77796 16.148 -21.4657 5.57243
lowerback 47.2549 1.84031 1.81256
upperback 17.5814 2.29268 0.0439363
thorax -1.59482 1.03711 -1.72755
lowerneck 7.2815 -12.0015 -11.2178
upperneck 35.4241 -20.1974 15.2215
head 13.8725 -8.95246 6.05395
rclavicle 4.77083e-015 3.10104e-014
rhumerus -4.62432 -9.87207 -68.3601
rradius 93.7712
rwrist 9.67137
rhand 11.5962 7.82806
rfingers 7.12502
rthumb 36.6386 -18.329
lclavicle 4.77083e-015 3.10104e-014
lhumerus 8.47974 -35.0297 80.5744
lradius 101.611
lwrist 4.70601
lhand 1.84752 23.9833
lfingers 7.12502
lthumb 27.3588 52.0176
rfemur -50.9551 15.2147 -1.85551
rtibia 37.8323
rfoot -5.23053 -4.3611
rtoes -19.5339
lfemur -42.781 8.50154 -29.1248
ltibia 38.0385
lfoot -11.2661 12.0975
ltoes -5.7499
1901
root 1.44365 15.4984 -2.77832 16.3388 -21.4915 5.56258
lowerback 48.3384 1.82633 1.82133
upperback 16.637 2.31821 0.0219161
thorax -1.71536 1.0396 -1.6672
lowerneck 7.43185 -11.9825 -11.256
upperneck 35.4421 -20.1569 15.1935
head 13.8433 -8.94492 6.06644
rclavicle 1.11319e-014 5.76476e-014
rhumerus -4.71594 -9.85664 -68.3081
rradius 93.7174
rwrist 9.86335
rhand 11.7805 7.81767
rfingers 7.12502
rthumb 36.813 -18.2949
lclavicle 1.11319e-014 5.76476e-014
lhumerus 8.36356 -35.3351 80.667
lradius 101.416
lwrist 4.87321
lhand 1.55978 23.7038
lfingers 7.12502
lthumb 27.0835 51.7812
rfemur -51.267 15.145 -1.89498
rtibia 38.0228
rfoot -5.22634 -4.39988
rtoes -18.0181
lfemur -43.1332 8.55951 -29.1757
ltibia 38.2999
lfoot -11.3905 12.0299
ltoes -5.82605
